<svg class="main-svg" xmlns="http://www.w3.org/2000/svg" xmlns:xlink="http://www.w3.org/1999/xlink" width="2400" height="1600" style="" viewBox="0 0 1200 800"><rect x="0" y="0" width="1200" height="800" style="fill: rgb(243, 243, 238); fill-opacity: 1;"/><defs id="defs-ca4926"><g class="clips"><clipPath id="clipca4926xyplot" class="plotclip"><rect width="1040" height="572"/></clipPath><clipPath class="axesclip" id="clipca4926x"><rect x="80" y="0" width="1040" height="800"/></clipPath><clipPath class="axesclip" id="clipca4926y"><rect x="0" y="148" width="1200" height="572"/></clipPath><clipPath class="axesclip" id="clipca4926xy"><rect x="80" y="148" width="1040" height="572"/></clipPath></g><g class="gradients"/><g class="patterns"/></defs><g class="bglayer"><rect class="bg" x="80" y="148" width="1040" height="572" style="fill: rgb(255, 255, 255); fill-opacity: 1; stroke-width: 0;"/></g><g class="layer-below"><g class="imagelayer"/><g class="shapelayer"/></g><g class="cartesianlayer"><g class="subplot xy"><g class="layer-subplot"><g class="shapelayer"/><g class="imagelayer"/></g><g class="minor-gridlayer"><g class="x"/><g class="y"/></g><g class="gridlayer"><g class="x"/><g class="y"/></g><g class="zerolinelayer"/><g class="layer-between"><g class="shapelayer"/><g class="imagelayer"/></g><path class="xlines-below"/><path class="ylines-below"/><g class="overlines-below"/><g class="xaxislayer-below"/><g class="yaxislayer-below"/><g class="overaxes-below"/><g class="overplot"><g class="xy" transform="translate(80,148)" clip-path="url(#clipca4926xyplot)"><g class="scatterlayer mlayer"><g class="trace scatter trace73268c" style="stroke-miterlimit: 2; opacity: 1;"><g class="fills"/><g class="errorbars"/><g class="lines"><path class="js-line" d="M77,53.6L520,105.24" style="vector-effect: none; fill: none; stroke: rgb(102, 102, 102); stroke-opacity: 1; stroke-width: 2px; opacity: 1;"/><path class="js-line" d="M372.33,53.6L520,105.24" style="vector-effect: none; fill: none; stroke: rgb(102, 102, 102); stroke-opacity: 1; stroke-width: 2px; opacity: 1;"/><path class="js-line" d="M667.67,53.6L520,105.24" style="vector-effect: none; fill: none; stroke: rgb(102, 102, 102); stroke-opacity: 1; stroke-width: 2px; opacity: 1;"/><path class="js-line" d="M963,53.6L520,105.24" style="vector-effect: none; fill: none; stroke: rgb(102, 102, 102); stroke-opacity: 1; stroke-width: 2px; opacity: 1;"/><path class="js-line" d="M520,105.24L520,156.89" style="vector-effect: none; fill: none; stroke: rgb(102, 102, 102); stroke-opacity: 1; stroke-width: 2px; opacity: 1;"/><path class="js-line" d="M520,156.89L520,208.53" style="vector-effect: none; fill: none; stroke: rgb(102, 102, 102); stroke-opacity: 1; stroke-width: 2px; opacity: 1;"/><path class="js-line" d="M520,208.53L520,260.18" style="vector-effect: none; fill: none; stroke: rgb(102, 102, 102); stroke-opacity: 1; stroke-width: 2px; opacity: 1;"/><path class="js-line" d="M520,208.53L963,234.36" style="vector-effect: none; fill: none; stroke: rgb(102, 102, 102); stroke-opacity: 1; stroke-width: 2px; opacity: 1;"/><path class="js-line" d="M520,260.18L520,311.82" style="vector-effect: none; fill: none; stroke: rgb(102, 102, 102); stroke-opacity: 1; stroke-width: 2px; opacity: 1;"/><path class="js-line" d="M520,311.82L224.67,363.47" style="vector-effect: none; fill: none; stroke: rgb(102, 102, 102); stroke-opacity: 1; stroke-width: 2px; opacity: 1;"/><path class="js-line" d="M520,311.82L372.33,363.47" style="vector-effect: none; fill: none; stroke: rgb(102, 102, 102); stroke-opacity: 1; stroke-width: 2px; opacity: 1;"/><path class="js-line" d="M520,311.82L667.67,363.47" style="vector-effect: none; fill: none; stroke: rgb(102, 102, 102); stroke-opacity: 1; stroke-width: 2px; opacity: 1;"/><path class="js-line" d="M520,311.82L815.33,363.47" style="vector-effect: none; fill: none; stroke: rgb(102, 102, 102); stroke-opacity: 1; stroke-width: 2px; opacity: 1;"/><path class="js-line" d="M224.67,363.47L298.5,415.11" style="vector-effect: none; fill: none; stroke: rgb(102, 102, 102); stroke-opacity: 1; stroke-width: 2px; opacity: 1;"/><path class="js-line" d="M372.33,363.47L298.5,415.11" style="vector-effect: none; fill: none; stroke: rgb(102, 102, 102); stroke-opacity: 1; stroke-width: 2px; opacity: 1;"/><path class="js-line" d="M667.67,363.47L667.67,415.11" style="vector-effect: none; fill: none; stroke: rgb(102, 102, 102); stroke-opacity: 1; stroke-width: 2px; opacity: 1;"/><path class="js-line" d="M815.33,363.47L815.33,415.11" style="vector-effect: none; fill: none; stroke: rgb(102, 102, 102); stroke-opacity: 1; stroke-width: 2px; opacity: 1;"/><path class="js-line" d="M298.5,415.11L593.83,466.76" style="vector-effect: none; fill: none; stroke: rgb(102, 102, 102); stroke-opacity: 1; stroke-width: 2px; opacity: 1;"/><path class="js-line" d="M667.67,415.11L593.83,466.76" style="vector-effect: none; fill: none; stroke: rgb(102, 102, 102); stroke-opacity: 1; stroke-width: 2px; opacity: 1;"/><path class="js-line" d="M815.33,415.11L593.83,466.76" style="vector-effect: none; fill: none; stroke: rgb(102, 102, 102); stroke-opacity: 1; stroke-width: 2px; opacity: 1;"/><path class="js-line" d="M963,234.36L593.83,466.76" style="vector-effect: none; fill: none; stroke: rgb(102, 102, 102); stroke-opacity: 1; stroke-width: 2px; opacity: 1;"/><path class="js-line" d="M593.83,466.76L446.17,518.4" style="vector-effect: none; fill: none; stroke: rgb(102, 102, 102); stroke-opacity: 1; stroke-width: 2px; opacity: 1;"/><path class="js-line" d="M593.83,466.76L741.5,518.4" style="vector-effect: none; fill: none; stroke: rgb(102, 102, 102); stroke-opacity: 1; stroke-width: 2px; opacity: 1;"/><path class="js-line" d="M741.5,518.4L520,105.24" style="vector-effect: none; fill: none; stroke: rgb(102, 102, 102); stroke-opacity: 1; stroke-width: 2px; opacity: 1;"/></g><g class="points"/><g class="text"/></g><g class="trace scatter trace015ec1" style="stroke-miterlimit: 2; opacity: 1;"><g class="fills"/><g class="errorbars"/><g class="lines"/><g class="points"><path class="point" transform="translate(77,53.6)" d="M20,0A20,20 0 1,1 0,-20A20,20 0 0,1 20,0Z" style="opacity: 1; stroke-width: 2px; fill: rgb(31, 184, 205); fill-opacity: 1; stroke: rgb(255, 255, 255); stroke-opacity: 1;"/><path class="point" transform="translate(372.33,53.6)" d="M20,0A20,20 0 1,1 0,-20A20,20 0 0,1 20,0Z" style="opacity: 1; stroke-width: 2px; fill: rgb(31, 184, 205); fill-opacity: 1; stroke: rgb(255, 255, 255); stroke-opacity: 1;"/><path class="point" transform="translate(667.67,53.6)" d="M20,0A20,20 0 1,1 0,-20A20,20 0 0,1 20,0Z" style="opacity: 1; stroke-width: 2px; fill: rgb(31, 184, 205); fill-opacity: 1; stroke: rgb(255, 255, 255); stroke-opacity: 1;"/><path class="point" transform="translate(963,53.6)" d="M20,0A20,20 0 1,1 0,-20A20,20 0 0,1 20,0Z" style="opacity: 1; stroke-width: 2px; fill: rgb(31, 184, 205); fill-opacity: 1; stroke: rgb(255, 255, 255); stroke-opacity: 1;"/></g><g class="text"><g class="textpoint" transform="translate(0,2.5)"><text x="77" y="53.6" text-anchor="middle" style="font-family: 'FK Grotesk Neue'; font-size: 10px; fill: rgb(255, 255, 255); fill-opacity: 1; white-space: pre;">Teams/Slack Chat</text></g><g class="textpoint" transform="translate(0,2.5)"><text x="372.33" y="53.6" text-anchor="middle" style="font-family: 'FK Grotesk Neue'; font-size: 10px; fill: rgb(255, 255, 255); fill-opacity: 1; white-space: pre;">Email Alerts</text></g><g class="textpoint" transform="translate(0,2.5)"><text x="667.67" y="53.6" text-anchor="middle" style="font-family: 'FK Grotesk Neue'; font-size: 10px; fill: rgb(255, 255, 255); fill-opacity: 1; white-space: pre;">Monitoring Tools</text></g><g class="textpoint" transform="translate(0,2.5)"><text x="963" y="53.6" text-anchor="middle" style="font-family: 'FK Grotesk Neue'; font-size: 10px; fill: rgb(255, 255, 255); fill-opacity: 1; white-space: pre;">Manual Reports</text></g></g></g><g class="trace scatter tracebea7f4" style="stroke-miterlimit: 2; opacity: 1;"><g class="fills"/><g class="errorbars"/><g class="lines"/><g class="points"><path class="point" transform="translate(520,105.24)" d="M20,0A20,20 0 1,1 0,-20A20,20 0 0,1 20,0Z" style="opacity: 1; stroke-width: 2px; fill: rgb(46, 139, 87); fill-opacity: 1; stroke: rgb(255, 255, 255); stroke-opacity: 1;"/><path class="point" transform="translate(520,156.89)" d="M20,0A20,20 0 1,1 0,-20A20,20 0 0,1 20,0Z" style="opacity: 1; stroke-width: 2px; fill: rgb(46, 139, 87); fill-opacity: 1; stroke: rgb(255, 255, 255); stroke-opacity: 1;"/><path class="point" transform="translate(520,260.18)" d="M20,0A20,20 0 1,1 0,-20A20,20 0 0,1 20,0Z" style="opacity: 1; stroke-width: 2px; fill: rgb(46, 139, 87); fill-opacity: 1; stroke: rgb(255, 255, 255); stroke-opacity: 1;"/><path class="point" transform="translate(520,311.82)" d="M20,0A20,20 0 1,1 0,-20A20,20 0 0,1 20,0Z" style="opacity: 1; stroke-width: 2px; fill: rgb(46, 139, 87); fill-opacity: 1; stroke: rgb(255, 255, 255); stroke-opacity: 1;"/><path class="point" transform="translate(593.83,466.76)" d="M20,0A20,20 0 1,1 0,-20A20,20 0 0,1 20,0Z" style="opacity: 1; stroke-width: 2px; fill: rgb(46, 139, 87); fill-opacity: 1; stroke: rgb(255, 255, 255); stroke-opacity: 1;"/></g><g class="text"><g class="textpoint" transform="translate(0,2.5)"><text x="520" y="105.24" text-anchor="middle" style="font-family: 'FK Grotesk Neue'; font-size: 10px; fill: rgb(255, 255, 255); fill-opacity: 1; white-space: pre;">AI Process Engine</text></g><g class="textpoint" transform="translate(0,2.5)"><text x="520" y="156.89" text-anchor="middle" style="font-family: 'FK Grotesk Neue'; font-size: 10px; fill: rgb(255, 255, 255); fill-opacity: 1; white-space: pre;">Incident Category</text></g><g class="textpoint" transform="translate(0,2.5)"><text x="520" y="260.18" text-anchor="middle" style="font-family: 'FK Grotesk Neue'; font-size: 10px; fill: rgb(255, 255, 255); fill-opacity: 1; white-space: pre;">Smart Routing</text></g><g class="textpoint" transform="translate(0,2.5)"><text x="520" y="311.82" text-anchor="middle" style="font-family: 'FK Grotesk Neue'; font-size: 10px; fill: rgb(255, 255, 255); fill-opacity: 1; white-space: pre;">Workflow Auto</text></g><g class="textpoint" transform="translate(0,2.5)"><text x="593.83" y="466.76" text-anchor="middle" style="font-family: 'FK Grotesk Neue'; font-size: 10px; fill: rgb(255, 255, 255); fill-opacity: 1; white-space: pre;">Feedback Loop</text></g></g></g><g class="trace scatter trace4b6cfa" style="stroke-miterlimit: 2; opacity: 1;"><g class="fills"/><g class="errorbars"/><g class="lines"/><g class="points"><path class="point" transform="translate(520,208.53)" d="M20,0A20,20 0 1,1 0,-20A20,20 0 0,1 20,0Z" style="opacity: 1; stroke-width: 2px; fill: rgb(210, 186, 76); fill-opacity: 1; stroke: rgb(255, 255, 255); stroke-opacity: 1;"/></g><g class="text"><g class="textpoint" transform="translate(0,2.5)"><text x="520" y="208.53" text-anchor="middle" style="font-family: 'FK Grotesk Neue'; font-size: 10px; fill: rgb(255, 255, 255); fill-opacity: 1; white-space: pre;">Priority Assess</text></g></g></g><g class="trace scatter trace623169" style="stroke-miterlimit: 2; opacity: 1;"><g class="fills"/><g class="errorbars"/><g class="lines"/><g class="points"><path class="point" transform="translate(224.67,363.47)" d="M20,0A20,20 0 1,1 0,-20A20,20 0 0,1 20,0Z" style="opacity: 1; stroke-width: 2px; fill: rgb(219, 69, 69); fill-opacity: 1; stroke: rgb(255, 255, 255); stroke-opacity: 1;"/><path class="point" transform="translate(372.33,363.47)" d="M20,0A20,20 0 1,1 0,-20A20,20 0 0,1 20,0Z" style="opacity: 1; stroke-width: 2px; fill: rgb(219, 69, 69); fill-opacity: 1; stroke: rgb(255, 255, 255); stroke-opacity: 1;"/><path class="point" transform="translate(667.67,363.47)" d="M20,0A20,20 0 1,1 0,-20A20,20 0 0,1 20,0Z" style="opacity: 1; stroke-width: 2px; fill: rgb(219, 69, 69); fill-opacity: 1; stroke: rgb(255, 255, 255); stroke-opacity: 1;"/><path class="point" transform="translate(815.33,363.47)" d="M20,0A20,20 0 1,1 0,-20A20,20 0 0,1 20,0Z" style="opacity: 1; stroke-width: 2px; fill: rgb(219, 69, 69); fill-opacity: 1; stroke: rgb(255, 255, 255); stroke-opacity: 1;"/></g><g class="text"><g class="textpoint" transform="translate(0,2.5)"><text x="224.67" y="363.47" text-anchor="middle" style="font-family: 'FK Grotesk Neue'; font-size: 10px; fill: rgb(255, 255, 255); fill-opacity: 1; white-space: pre;">ServiceNow API</text></g><g class="textpoint" transform="translate(0,2.5)"><text x="372.33" y="363.47" text-anchor="middle" style="font-family: 'FK Grotesk Neue'; font-size: 10px; fill: rgb(255, 255, 255); fill-opacity: 1; white-space: pre;">Jira API</text></g><g class="textpoint" transform="translate(0,2.5)"><text x="667.67" y="363.47" text-anchor="middle" style="font-family: 'FK Grotesk Neue'; font-size: 10px; fill: rgb(255, 255, 255); fill-opacity: 1; white-space: pre;">Azure DevOps</text></g><g class="textpoint" transform="translate(0,2.5)"><text x="815.33" y="363.47" text-anchor="middle" style="font-family: 'FK Grotesk Neue'; font-size: 10px; fill: rgb(255, 255, 255); fill-opacity: 1; white-space: pre;">Email/SMS</text></g></g></g><g class="trace scatter trace16a023" style="stroke-miterlimit: 2; opacity: 1;"><g class="fills"/><g class="errorbars"/><g class="lines"/><g class="points"><path class="point" transform="translate(298.5,415.11)" d="M20,0A20,20 0 1,1 0,-20A20,20 0 0,1 20,0Z" style="opacity: 1; stroke-width: 2px; fill: rgb(93, 135, 143); fill-opacity: 1; stroke: rgb(255, 255, 255); stroke-opacity: 1;"/><path class="point" transform="translate(667.67,415.11)" d="M20,0A20,20 0 1,1 0,-20A20,20 0 0,1 20,0Z" style="opacity: 1; stroke-width: 2px; fill: rgb(93, 135, 143); fill-opacity: 1; stroke: rgb(255, 255, 255); stroke-opacity: 1;"/><path class="point" transform="translate(815.33,415.11)" d="M20,0A20,20 0 1,1 0,-20A20,20 0 0,1 20,0Z" style="opacity: 1; stroke-width: 2px; fill: rgb(93, 135, 143); fill-opacity: 1; stroke: rgb(255, 255, 255); stroke-opacity: 1;"/><path class="point" transform="translate(963,234.36)" d="M20,0A20,20 0 1,1 0,-20A20,20 0 0,1 20,0Z" style="opacity: 1; stroke-width: 2px; fill: rgb(93, 135, 143); fill-opacity: 1; stroke: rgb(255, 255, 255); stroke-opacity: 1;"/></g><g class="text"><g class="textpoint" transform="translate(0,2.5)"><text x="298.5" y="415.11" text-anchor="middle" style="font-family: 'FK Grotesk Neue'; font-size: 10px; fill: rgb(255, 255, 255); fill-opacity: 1; white-space: pre;">Ticket Creation</text></g><g class="textpoint" transform="translate(0,2.5)"><text x="667.67" y="415.11" text-anchor="middle" style="font-family: 'FK Grotesk Neue'; font-size: 10px; fill: rgb(255, 255, 255); fill-opacity: 1; white-space: pre;">Team Notify</text></g><g class="textpoint" transform="translate(0,2.5)"><text x="815.33" y="415.11" text-anchor="middle" style="font-family: 'FK Grotesk Neue'; font-size: 10px; fill: rgb(255, 255, 255); fill-opacity: 1; white-space: pre;">Status Updates</text></g><g class="textpoint" transform="translate(0,2.5)"><text x="963" y="234.36" text-anchor="middle" style="font-family: 'FK Grotesk Neue'; font-size: 10px; fill: rgb(255, 255, 255); fill-opacity: 1; white-space: pre;">Escalation</text></g></g></g><g class="trace scatter trace35abd9" style="stroke-miterlimit: 2; opacity: 1;"><g class="fills"/><g class="errorbars"/><g class="lines"/><g class="points"><path class="point" transform="translate(446.17,518.4)" d="M20,0A20,20 0 1,1 0,-20A20,20 0 0,1 20,0Z" style="opacity: 1; stroke-width: 2px; fill: rgb(148, 68, 84); fill-opacity: 1; stroke: rgb(255, 255, 255); stroke-opacity: 1;"/><path class="point" transform="translate(741.5,518.4)" d="M20,0A20,20 0 1,1 0,-20A20,20 0 0,1 20,0Z" style="opacity: 1; stroke-width: 2px; fill: rgb(148, 68, 84); fill-opacity: 1; stroke: rgb(255, 255, 255); stroke-opacity: 1;"/></g><g class="text"><g class="textpoint" transform="translate(0,2.5)"><text x="446.17" y="518.4" text-anchor="middle" style="font-family: 'FK Grotesk Neue'; font-size: 10px; fill: rgb(255, 255, 255); fill-opacity: 1; white-space: pre;">Performance</text></g><g class="textpoint" transform="translate(0,2.5)"><text x="741.5" y="518.4" text-anchor="middle" style="font-family: 'FK Grotesk Neue'; font-size: 10px; fill: rgb(255, 255, 255); fill-opacity: 1; white-space: pre;">ML Learning</text></g></g></g></g></g></g><path class="xlines-above crisp" d="" style="fill: none; stroke-width: 1px; stroke: rgb(0, 0, 0); stroke-opacity: 0;"/><path class="ylines-above crisp" d="" style="fill: none; stroke-width: 1px; stroke: rgb(0, 0, 0); stroke-opacity: 0;"/><g class="overlines-above"/><g class="xaxislayer-above"><path class="xtick ticks crisp" d="M0,721v5" transform="translate(157,0)" style="stroke: rgb(94, 82, 64); stroke-opacity: 0.2; stroke-width: 1px;"/><path class="xtick ticks crisp" d="M0,721v5" transform="translate(304.66999999999996,0)" style="stroke: rgb(94, 82, 64); stroke-opacity: 0.2; stroke-width: 1px;"/><path class="xtick ticks crisp" d="M0,721v5" transform="translate(452.33,0)" style="stroke: rgb(94, 82, 64); stroke-opacity: 0.2; stroke-width: 1px;"/><path class="xtick ticks crisp" d="M0,721v5" transform="translate(600,0)" style="stroke: rgb(94, 82, 64); stroke-opacity: 0.2; stroke-width: 1px;"/><path class="xtick ticks crisp" d="M0,721v5" transform="translate(747.67,0)" style="stroke: rgb(94, 82, 64); stroke-opacity: 0.2; stroke-width: 1px;"/><path class="xtick ticks crisp" d="M0,721v5" transform="translate(895.33,0)" style="stroke: rgb(94, 82, 64); stroke-opacity: 0.2; stroke-width: 1px;"/><path class="xtick ticks crisp" d="M0,721v5" transform="translate(1043,0)" style="stroke: rgb(94, 82, 64); stroke-opacity: 0.2; stroke-width: 1px;"/></g><g class="yaxislayer-above"><path class="ytick ticks crisp" d="M79,0h-5" transform="translate(0,683.61)" style="stroke: rgb(94, 82, 64); stroke-opacity: 0.2; stroke-width: 1px;"/><path class="ytick ticks crisp" d="M79,0h-5" transform="translate(0,614.76)" style="stroke: rgb(94, 82, 64); stroke-opacity: 0.2; stroke-width: 1px;"/><path class="ytick ticks crisp" d="M79,0h-5" transform="translate(0,545.9)" style="stroke: rgb(94, 82, 64); stroke-opacity: 0.2; stroke-width: 1px;"/><path class="ytick ticks crisp" d="M79,0h-5" transform="translate(0,477.04)" style="stroke: rgb(94, 82, 64); stroke-opacity: 0.2; stroke-width: 1px;"/><path class="ytick ticks crisp" d="M79,0h-5" transform="translate(0,408.18)" style="stroke: rgb(94, 82, 64); stroke-opacity: 0.2; stroke-width: 1px;"/><path class="ytick ticks crisp" d="M79,0h-5" transform="translate(0,339.32)" style="stroke: rgb(94, 82, 64); stroke-opacity: 0.2; stroke-width: 1px;"/><path class="ytick ticks crisp" d="M79,0h-5" transform="translate(0,270.46)" style="stroke: rgb(94, 82, 64); stroke-opacity: 0.2; stroke-width: 1px;"/><path class="ytick ticks crisp" d="M79,0h-5" transform="translate(0,201.6)" style="stroke: rgb(94, 82, 64); stroke-opacity: 0.2; stroke-width: 1px;"/></g><g class="overaxes-above"/></g></g><g class="polarlayer"/><g class="smithlayer"/><g class="ternarylayer"/><g class="geolayer"/><g class="funnelarealayer"/><g class="pielayer"/><g class="iciclelayer"/><g class="treemaplayer"/><g class="sunburstlayer"/><g class="glimages"/><defs id="topdefs-ca4926"><g class="clips"/><clipPath id="legendca4926"><rect width="636" height="34" x="0" y="0"/></clipPath></defs><g class="layer-above"><g class="imagelayer"/><g class="shapelayer"/></g><g class="infolayer"><g class="legend" pointer-events="all" transform="translate(282,85.39999999999998)"><rect class="bg" shape-rendering="crispEdges" width="636" height="34" x="0" y="0" style="stroke: rgb(68, 68, 68); stroke-opacity: 1; fill: rgb(243, 243, 238); fill-opacity: 1; stroke-width: 0px;"/><g class="scrollbox" transform="" clip-path="url(#legendca4926)"><g class="groups"><g class="traces" transform="translate(0,16.9)" style="opacity: 1;"><text class="legendtext" text-anchor="start" x="40" y="6.24" style="font-family: 'FK Grotesk Neue'; font-size: 16px; fill: rgb(19, 52, 59); fill-opacity: 1; white-space: pre;">Input</text><g class="layers" style="opacity: 1;"><g class="legendfill"/><g class="legendlines"/><g class="legendsymbols"><g class="legendpoints"><path class="scatterpts" transform="translate(20,0)" d="M8,0A8,8 0 1,1 0,-8A8,8 0 0,1 8,0Z" style="opacity: 1; stroke-width: 2px; fill: rgb(31, 184, 205); fill-opacity: 1; stroke: rgb(255, 255, 255); stroke-opacity: 1;"/></g></g></g><rect class="legendtoggle" x="0" y="-11.9" width="81.28125" height="23.8" style="fill: rgb(0, 0, 0); fill-opacity: 0;"/></g><g class="traces" transform="translate(83.78125,16.9)" style="opacity: 1;"><text class="legendtext" text-anchor="start" x="40" y="6.24" style="font-family: 'FK Grotesk Neue'; font-size: 16px; fill: rgb(19, 52, 59); fill-opacity: 1; white-space: pre;">Process</text><g class="layers" style="opacity: 1;"><g class="legendfill"/><g class="legendlines"/><g class="legendsymbols"><g class="legendpoints"><path class="scatterpts" transform="translate(20,0)" d="M8,0A8,8 0 1,1 0,-8A8,8 0 0,1 8,0Z" style="opacity: 1; stroke-width: 2px; fill: rgb(46, 139, 87); fill-opacity: 1; stroke: rgb(255, 255, 255); stroke-opacity: 1;"/></g></g></g><rect class="legendtoggle" x="0" y="-11.9" width="102.609375" height="23.8" style="fill: rgb(0, 0, 0); fill-opacity: 0;"/></g><g class="traces" transform="translate(188.890625,16.9)" style="opacity: 1;"><text class="legendtext" text-anchor="start" x="40" y="6.24" style="font-family: 'FK Grotesk Neue'; font-size: 16px; fill: rgb(19, 52, 59); fill-opacity: 1; white-space: pre;">Decision</text><g class="layers" style="opacity: 1;"><g class="legendfill"/><g class="legendlines"/><g class="legendsymbols"><g class="legendpoints"><path class="scatterpts" transform="translate(20,0)" d="M8,0A8,8 0 1,1 0,-8A8,8 0 0,1 8,0Z" style="opacity: 1; stroke-width: 2px; fill: rgb(210, 186, 76); fill-opacity: 1; stroke: rgb(255, 255, 255); stroke-opacity: 1;"/></g></g></g><rect class="legendtoggle" x="0" y="-11.9" width="106.71875" height="23.8" style="fill: rgb(0, 0, 0); fill-opacity: 0;"/></g><g class="traces" transform="translate(298.109375,16.9)" style="opacity: 1;"><text class="legendtext" text-anchor="start" x="40" y="6.24" style="font-family: 'FK Grotesk Neue'; font-size: 16px; fill: rgb(19, 52, 59); fill-opacity: 1; white-space: pre;">Integration</text><g class="layers" style="opacity: 1;"><g class="legendfill"/><g class="legendlines"/><g class="legendsymbols"><g class="legendpoints"><path class="scatterpts" transform="translate(20,0)" d="M8,0A8,8 0 1,1 0,-8A8,8 0 0,1 8,0Z" style="opacity: 1; stroke-width: 2px; fill: rgb(219, 69, 69); fill-opacity: 1; stroke: rgb(255, 255, 255); stroke-opacity: 1;"/></g></g></g><rect class="legendtoggle" x="0" y="-11.9" width="123.1875" height="23.8" style="fill: rgb(0, 0, 0); fill-opacity: 0;"/></g><g class="traces" transform="translate(423.796875,16.9)" style="opacity: 1;"><text class="legendtext" text-anchor="start" x="40" y="6.24" style="font-family: 'FK Grotesk Neue'; font-size: 16px; fill: rgb(19, 52, 59); fill-opacity: 1; white-space: pre;">Output</text><g class="layers" style="opacity: 1;"><g class="legendfill"/><g class="legendlines"/><g class="legendsymbols"><g class="legendpoints"><path class="scatterpts" transform="translate(20,0)" d="M8,0A8,8 0 1,1 0,-8A8,8 0 0,1 8,0Z" style="opacity: 1; stroke-width: 2px; fill: rgb(93, 135, 143); fill-opacity: 1; stroke: rgb(255, 255, 255); stroke-opacity: 1;"/></g></g></g><rect class="legendtoggle" x="0" y="-11.9" width="95.359375" height="23.8" style="fill: rgb(0, 0, 0); fill-opacity: 0;"/></g><g class="traces" transform="translate(521.65625,16.9)" style="opacity: 1;"><text class="legendtext" text-anchor="start" x="40" y="6.24" style="font-family: 'FK Grotesk Neue'; font-size: 16px; fill: rgb(19, 52, 59); fill-opacity: 1; white-space: pre;">Analytics</text><g class="layers" style="opacity: 1;"><g class="legendfill"/><g class="legendlines"/><g class="legendsymbols"><g class="legendpoints"><path class="scatterpts" transform="translate(20,0)" d="M8,0A8,8 0 1,1 0,-8A8,8 0 0,1 8,0Z" style="opacity: 1; stroke-width: 2px; fill: rgb(148, 68, 84); fill-opacity: 1; stroke: rgb(255, 255, 255); stroke-opacity: 1;"/></g></g></g><rect class="legendtoggle" x="0" y="-11.9" width="111.453125" height="23.8" style="fill: rgb(0, 0, 0); fill-opacity: 0;"/></g></g></g><rect class="scrollbar" rx="20" ry="3" width="0" height="0" x="0" y="0" style="fill: rgb(128, 139, 164); fill-opacity: 1;"/></g><g class="g-gtitle"><text class="gtitle" x="600" y="68" text-anchor="middle" dy="-0.3em" style="opacity: 1; font-family: 'FK Grotesk Neue'; font-size: 28px; fill: rgb(19, 52, 59); fill-opacity: 1; font-weight: 1000; white-space: pre;">BotBridge Ops MVP Architecture</text></g><g class="g-xtitle"/><g class="g-ytitle"/></g></svg>